<svg width="32" height="32" viewBox="0 0 32 32" fill="none" xmlns="http://www.w3.org/2000/svg">
<path d="M17.3333 18H3.99996C3.64634 18 3.3072 18.1405 3.05715 18.3905C2.8071 18.6406 2.66663 18.9797 2.66663 19.3333C2.66663 19.687 2.8071 20.0261 3.05715 20.2761C3.3072 20.5262 3.64634 20.6667 3.99996 20.6667H17.3333C17.6869 20.6667 18.0261 20.5262 18.2761 20.2761C18.5262 20.0261 18.6666 19.687 18.6666 19.3333C18.6666 18.9797 18.5262 18.6406 18.2761 18.3905C18.0261 18.1405 17.6869 18 17.3333 18ZM28 11.3333H3.99996C3.64634 11.3333 3.3072 11.4738 3.05715 11.7239C2.8071 11.9739 2.66663 12.313 2.66663 12.6667C2.66663 13.0203 2.8071 13.3594 3.05715 13.6095C3.3072 13.8595 3.64634 14 3.99996 14H28C28.3536 14 28.6927 13.8595 28.9428 13.6095C29.1928 13.3594 29.3333 13.0203 29.3333 12.6667C29.3333 12.313 29.1928 11.9739 28.9428 11.7239C28.6927 11.4738 28.3536 11.3333 28 11.3333Z" fill="white"/>
</svg>
