<svg width="38" height="50" viewBox="0 0 38 50" fill="none" xmlns="http://www.w3.org/2000/svg">
<path d="M38 19.0441C38 29.5619 19.5089 49.9908 19.5089 49.9908C19 50.501 0 29.5619 0 19.0441C0 8.52635 8.50659 0 19 0C29.4934 0 38 8.52635 38 19.0441Z" fill="url(#paint0_linear)"/>
<path d="M27.0928 21.696C26.5521 21.1761 25.8445 20.8646 25.0959 20.817C24.3472 20.7694 23.6058 20.9887 23.0036 21.436C22.3755 21.91 21.9733 22.566 21.2672 22.97C20.5956 23.3515 19.8388 23.5578 19.0665 23.57C17.9822 23.586 16.974 23.148 16.1217 22.5C15.3115 21.884 14.4072 21.032 13.9351 20.12C13.6053 19.4842 13.4286 18.7802 13.419 18.064C13.4086 17.4606 13.5186 16.8612 13.7425 16.3008C13.9665 15.7403 14.2999 15.2301 14.7233 14.8C14.7593 14.764 14.7953 14.728 14.8334 14.694L14.8794 14.656C14.8883 14.6497 14.8964 14.6423 14.9034 14.634C15.2935 14.3285 15.6198 13.9493 15.8636 13.518C16.8699 11.522 15.3495 9.00002 13.1049 9.00002C12.6961 8.99868 12.2911 9.07843 11.9134 9.23463C11.5356 9.39083 11.1926 9.62039 10.9043 9.91001C9.88197 10.936 9.67992 12.642 10.5402 13.832C11.0363 14.52 11.7825 14.97 12.2006 15.726C12.5759 16.3999 12.7819 17.1549 12.8008 17.926C12.8111 18.5318 12.7001 19.1335 12.4744 19.6957C12.2487 20.258 11.9128 20.7694 11.4864 21.2L11.3744 21.308L11.3524 21.326L11.3344 21.34L11.3084 21.362C11.2863 21.3834 11.2629 21.4034 11.2384 21.422L11.2003 21.452C10.8031 21.761 10.4907 22.1656 10.2921 22.628C10.1002 23.0232 10.0003 23.4567 10 23.896C9.99884 24.57 10.218 25.226 10.6242 25.764C10.7098 25.8791 10.8034 25.988 10.9043 26.09C11.1928 26.3793 11.5359 26.6087 11.9136 26.7649C12.2913 26.9211 12.6961 27.001 13.1049 27H13.1189C13.5178 27.0016 13.913 26.9234 14.2812 26.77C14.6647 26.6132 15.013 26.3814 15.3055 26.088C15.3894 26.0041 15.4682 25.9153 15.5416 25.822C15.8832 25.4263 16.2833 25.085 16.7279 24.81C17.402 24.4348 18.1572 24.2289 18.9285 24.21C19.8077 24.1952 20.6727 24.4325 21.4212 24.894C22.0874 25.308 22.4835 25.976 23.1317 26.402C24.356 27.202 26.0305 27.146 27.0888 26.088C27.6722 25.5044 28 24.7131 28 23.888C28 23.0629 27.6722 22.2716 27.0888 21.688L27.0928 21.696Z" fill="white"/>
<defs>
<linearGradient id="paint0_linear" x1="1.30163e-05" y1="49.9998" x2="39.6703" y2="48.5685" gradientUnits="userSpaceOnUse">
<stop stop-color="#FAB984"/>
<stop offset="1" stop-color="#FF498A"/>
</linearGradient>
</defs>
</svg>
