<svg width="127" height="42" viewBox="0 0 127 42" fill="none" xmlns="http://www.w3.org/2000/svg">
<path d="M67.5083 25.5127V28.9941H54.2572C53.4865 28.9956 52.724 28.8366 52.0183 28.5274C51.3405 28.2424 50.7246 27.8287 50.2047 27.3094C49.6857 26.7884 49.2702 26.1741 48.9801 25.4987C48.6722 24.7936 48.5131 24.0326 48.5127 23.2634V13.0947H51.9996V23.2774C51.999 23.5711 52.0565 23.8621 52.1688 24.1335C52.281 24.405 52.4459 24.6517 52.654 24.8594C52.862 25.0671 53.1091 25.2317 53.381 25.3438C53.6529 25.4559 53.9443 25.5133 54.2385 25.5127H67.5083Z" fill="white"/>
<path d="M74.3648 28.9941H70.8779V13.0947H74.3648V28.9941Z" fill="white"/>
<path d="M84.9986 21.042H95.5153C95.8176 21.0558 96.1196 21.0083 96.403 20.9023C96.6864 20.7963 96.9453 20.634 97.1642 20.4253C97.383 20.2166 97.5572 19.9658 97.6762 19.688C97.7952 19.4102 97.8565 19.1112 97.8565 18.809C97.8565 18.5069 97.7952 18.2079 97.6762 17.93C97.5572 17.6522 97.383 17.4014 97.1642 17.1927C96.9453 16.984 96.6864 16.8217 96.403 16.7157C96.1196 16.6097 95.8176 16.5622 95.5153 16.576H81.1051V28.994H77.6182V13.0947L95.5153 13.0667C96.2672 13.0646 97.012 13.212 97.7062 13.5005C98.4004 13.7889 99.0301 14.2126 99.5584 14.7467C100.073 15.2772 100.487 15.8972 100.778 16.576C101.074 17.2834 101.227 18.0424 101.227 18.809C101.227 19.5756 101.074 20.3346 100.778 21.042C100.491 21.7216 100.077 22.3407 99.5584 22.8667C99.036 23.385 98.4187 23.7985 97.7402 24.0847C97.0339 24.3921 96.2718 24.551 95.5013 24.5513H93.4821L101.068 29.022H94.2954L84.419 23.1887C84.3025 23.1328 84.1986 23.0539 84.1135 22.9569C84.0283 22.8598 83.9637 22.7466 83.9235 22.624C83.8447 22.3954 83.8349 22.1487 83.8955 21.9147C83.9522 21.6793 84.0853 21.4693 84.2741 21.3173C84.4731 21.1392 84.7313 21.0411 84.9986 21.042Z" fill="white"/>
<path d="M109.173 13.0059H120.274C121.045 13.0048 121.807 13.1637 122.513 13.4726C123.194 13.7554 123.811 14.1693 124.331 14.6906C124.85 15.2182 125.264 15.8389 125.551 16.5199C125.861 17.2228 126.02 17.9826 126.019 18.7506V29.0173H122.532V25.1626H106.939V28.9939H103.452V18.7273C103.453 17.9596 103.612 17.2003 103.92 16.4966C104.207 15.8155 104.621 15.1949 105.14 14.6673C105.658 14.1409 106.276 13.7222 106.958 13.4353C107.659 13.1413 108.413 12.9952 109.173 13.0059ZM106.939 21.6533H122.513V18.7506C122.514 18.4569 122.457 18.1659 122.345 17.8944C122.233 17.6229 122.068 17.3763 121.86 17.1689C121.652 16.9614 121.404 16.7972 121.132 16.6859C120.86 16.5745 120.568 16.5181 120.274 16.5199H109.173C108.879 16.5181 108.588 16.5745 108.316 16.6859C108.044 16.7974 107.797 16.9616 107.589 17.1691C107.381 17.3766 107.217 17.6233 107.105 17.8948C106.994 18.1662 106.937 18.4571 106.939 18.7506V21.6533Z" fill="white"/>
<path d="M39.9356 29.624C38.6724 28.4109 37.0192 27.6842 35.27 27.5731C33.5208 27.462 31.7887 27.9738 30.3817 29.0174C28.9141 30.1234 27.9746 31.654 26.3246 32.5967C24.7556 33.4868 22.9874 33.9683 21.1831 33.9967C18.6497 34.034 16.294 33.012 14.3028 31.5C12.4098 30.0627 10.2971 28.0747 9.19399 25.9467C8.42342 24.4631 8.01049 22.8204 7.98807 21.1494C7.96379 19.7414 8.22079 18.3428 8.74404 17.0351C9.26729 15.7275 10.0463 14.537 11.0356 13.5334C11.1197 13.4494 11.2039 13.3654 11.2927 13.286L11.4002 13.1974C11.421 13.1828 11.4399 13.1655 11.4563 13.146C12.3677 12.4331 13.13 11.5484 13.6998 10.542C16.0509 5.88471 12.4986 3.83281e-05 7.25423 3.83281e-05C6.29917 -0.00307072 5.35297 0.182997 4.47042 0.54747C3.58788 0.911942 2.78651 1.44758 2.11271 2.12337C-0.275762 4.51737 -0.747847 8.49804 1.26202 11.2747C2.4212 12.88 4.16464 13.93 5.14153 15.694C6.01845 17.2665 6.49966 19.0281 6.54377 20.8274C6.56783 22.2408 6.30855 23.6448 5.78118 24.9567C5.2538 26.2687 4.46898 27.462 3.47287 28.4667L3.21112 28.7187L3.15971 28.7607L3.11764 28.7934L3.05688 28.8447C3.00521 28.8946 2.95058 28.9414 2.89329 28.9847L2.80448 29.0547C1.87643 29.7758 1.14639 30.7198 0.682431 31.7987C0.234046 32.7208 0.000732454 33.7323 1.08266e-05 34.7574C-0.0027151 36.3301 0.50938 37.8607 1.45833 39.116C1.65831 39.3846 1.87698 39.6388 2.11271 39.8767C2.78697 40.5519 3.58843 41.0871 4.47087 41.4515C5.35331 41.816 6.29928 42.0024 7.25423 42H7.28695C8.21897 42.0039 9.14233 41.8214 10.0026 41.4634C10.8987 41.0977 11.7124 40.5566 12.3958 39.872C12.5918 39.6763 12.776 39.469 12.9473 39.2514C13.7456 38.3281 14.6802 37.5319 15.719 36.89C17.294 36.0145 19.0585 35.5341 20.8606 35.49C22.9147 35.4555 24.9358 36.0094 26.6845 37.086C28.241 38.052 29.1665 39.6107 30.6809 40.6047C33.5414 42.4714 37.4537 42.3407 39.9263 39.872C41.2895 38.5104 42.0552 36.6639 42.0552 34.7387C42.0552 32.8135 41.2895 30.967 39.9263 29.6054L39.9356 29.624Z" fill="url(#paint0_linear)"/>
<defs>
<linearGradient id="paint0_linear" x1="1.08266e-05" y1="21" x2="42.067" y2="21" gradientUnits="userSpaceOnUse">
<stop stop-color="#FABF85"/>
<stop offset="0.19" stop-color="#FAA782"/>
<stop offset="0.58" stop-color="#FA697B"/>
<stop offset="1" stop-color="#FA2073"/>
</linearGradient>
</defs>
</svg>
