<?xml version="1.0" encoding="UTF-8"?>
<svg id="Layer_2" data-name="Layer 2" xmlns="http://www.w3.org/2000/svg" xmlns:xlink="http://www.w3.org/1999/xlink" viewBox="0 0 469.63 469.63">
  <defs>
    <style>
      .cls-1 {
        fill: url(#linear-gradient-2);
      }

      .cls-2 {
        fill: url(#linear-gradient-3);
      }

      .cls-3 {
        fill: url(#linear-gradient);
      }
    </style>
    <linearGradient id="linear-gradient" x1="-7.6" y1="387.27" x2="504.4" y2="65.27" gradientUnits="userSpaceOnUse">
      <stop offset="0" stop-color="#fabf85"/>
      <stop offset="1" stop-color="#fa2874"/>
    </linearGradient>
    <linearGradient id="linear-gradient-2" x1="-7.6" y1="387.27" x2="504.4" y2="65.27" xlink:href="#linear-gradient"/>
    <linearGradient id="linear-gradient-3" x1="-28.56" y1="353.94" x2="483.44" y2="31.94" xlink:href="#linear-gradient"/>
  </defs>
  <g id="Logo">
    <g>
      <path class="cls-3" d="M234.81,42.31c62.7,0,70.12.24,94.88,1.37,22.89,1.04,35.33,4.87,43.6,8.09,10.96,4.26,18.78,9.35,27,17.56,8.22,8.22,13.31,16.04,17.57,27,3.22,8.27,7.04,20.71,8.09,43.6,1.13,24.76,1.37,32.19,1.37,94.89s-.24,70.12-1.37,94.88c-1.04,22.89-4.87,35.33-8.09,43.6-4.26,10.96-9.35,18.78-17.56,27-8.22,8.22-16.04,13.31-27,17.57-8.27,3.22-20.71,7.04-43.6,8.09-24.76,1.13-32.18,1.37-94.88,1.37s-70.13-.24-94.88-1.37c-22.89-1.04-35.33-4.87-43.6-8.09-10.96-4.26-18.78-9.35-27-17.56-8.22-8.22-13.31-16.04-17.57-27-3.22-8.27-7.04-20.71-8.09-43.6-1.13-24.76-1.37-32.19-1.37-94.89s.24-70.12,1.37-94.88c1.04-22.89,4.87-35.33,8.09-43.6,4.26-10.96,9.35-18.78,17.56-27s16.04-13.31,27-17.57c8.27-3.22,20.71-7.04,43.6-8.09,24.76-1.13,32.19-1.37,94.89-1.37M234.81,0c-63.77,0-71.77.27-96.81,1.41-24.99,1.14-42.06,5.11-57,10.91-15.44,6-28.54,14.03-41.59,27.08-13.05,13.05-21.08,26.15-27.08,41.59-5.8,14.94-9.77,32.01-10.91,57-1.14,25.05-1.41,33.04-1.41,96.81s.27,71.77,1.41,96.81c1.14,24.99,5.11,42.06,10.91,57,6,15.44,14.03,28.54,27.08,41.59,13.05,13.05,26.15,21.08,41.59,27.08,14.94,5.8,32.01,9.77,57,10.91,25.05,1.14,33.04,1.41,96.81,1.41s71.77-.27,96.81-1.41c24.99-1.14,42.06-5.11,57-10.91,15.44-6,28.54-14.03,41.59-27.08,13.05-13.05,21.08-26.15,27.08-41.59,5.8-14.94,9.77-32.01,10.91-57,1.14-25.05,1.41-33.04,1.41-96.81s-.27-71.77-1.41-96.81c-1.14-24.99-5.11-42.06-10.91-57-6-15.44-14.03-28.54-27.08-41.59-13.05-13.05-26.15-21.08-41.59-27.08-14.94-5.8-32.01-9.77-57-10.91-25.05-1.14-33.04-1.41-96.81-1.41h0Z"/>
      <path class="cls-1" d="M234.81,114.23c-66.59,0-120.58,53.99-120.58,120.58s53.99,120.58,120.58,120.58,120.58-53.99,120.58-120.58-53.99-120.58-120.58-120.58ZM234.81,313.08c-43.23,0-78.27-35.04-78.27-78.27s35.04-78.27,78.27-78.27,78.27,35.04,78.27,78.27-35.04,78.27-78.27,78.27Z"/>
      <circle class="cls-2" cx="360.16" cy="109.47" r="28.18"/>
    </g>
  </g>
</svg>