<?xml version="1.0" encoding="UTF-8"?>
<svg id="Layer_2" data-name="Layer 2" xmlns="http://www.w3.org/2000/svg" xmlns:xlink="http://www.w3.org/1999/xlink" viewBox="0 0 468.94 468.94">
  <defs>
    <style>
      .cls-1 {
        fill: url(#linear-gradient);
      }
    </style>
    <linearGradient id="linear-gradient" x1="-59.96" y1="426.49" x2="538.04" y2="36.49" gradientUnits="userSpaceOnUse">
      <stop offset="0" stop-color="#fabf85"/>
      <stop offset="1" stop-color="#fa2874"/>
    </linearGradient>
  </defs>
  <g id="Logo">
    <path class="cls-1" d="M426.52,0H42.42C18.99,0,0,18.99,0,42.42v384.1c0,23.43,18.99,42.42,42.42,42.42h384.1c23.43,0,42.42-18.99,42.42-42.42V42.42c0-23.43-18.99-42.42-42.42-42.42ZM145.11,404.91c0,6.82-5.53,12.34-12.34,12.34h-52.55c-6.82,0-12.34-5.53-12.34-12.34v-220.28c0-6.82,5.53-12.34,12.34-12.34h52.55c6.82,0,12.34,5.53,12.34,12.34v220.28ZM106.49,151.52c-27.57,0-49.92-22.35-49.92-49.92s22.35-49.92,49.92-49.92,49.92,22.35,49.92,49.92-22.35,49.92-49.92,49.92ZM419.72,405.91c0,6.27-5.08,11.35-11.35,11.35h-56.39c-6.27,0-11.35-5.08-11.35-11.35v-103.32c0-15.41,4.52-67.54-40.28-67.54-34.75,0-41.8,35.68-43.22,51.69v119.17c0,6.27-5.08,11.35-11.35,11.35h-54.54c-6.27,0-11.35-5.08-11.35-11.35v-222.27c0-6.27,5.08-11.35,11.35-11.35h54.54c6.27,0,11.35,5.08,11.35,11.35v19.22c12.89-19.34,32.04-34.26,72.81-34.26,90.29,0,89.77,84.35,89.77,130.7v106.61h0Z"/>
  </g>
</svg>