<svg xmlns="http://www.w3.org/2000/svg" viewBox="0 0 1081.32 353.23"><defs><style>.cls-1{fill:#bdd2cb;}.cls-2{fill:#7783b2;}.cls-3{fill:#e9cdb7;}.cls-4{fill:#d5897c;}.cls-5{fill:#fff;}</style></defs><g id="Layer_2" data-name="Layer 2"><g id="Layer_1-2" data-name="Layer 1"><g id="Layer_2-2" data-name="Layer 2"><g id="Layer_1-2-2" data-name="Layer 1-2"><path class="cls-1" d="M211.64,131.71l-32.52,32.53a4,4,0,0,1-5.66,0L71.79,62.57a4,4,0,0,1,0-5.65l24-24.05a16,16,0,0,1,22.62,0l93.18,93.19A4,4,0,0,1,211.64,131.71Z"/><path class="cls-2" d="M3.51,168.13l77.4-77.4h0l38.19,38.18h0L33.21,214.8h0L3.51,185.1A12,12,0,0,1,3.51,168.13Z"/><path class="cls-3" d="M349.08,185.1l-77.36,77.36h0l-38.18-38.18h0l85.84-85.85h0l29.7,29.7A12,12,0,0,1,349.08,185.1Z"/><path class="cls-1" d="M184.51,3.51l77.68,77.68h0L224,119.37h0L137.84,33.21h0l29.7-29.7A12,12,0,0,1,184.51,3.51Z"/><path class="cls-4" d="M168.14,349.71l-77.4-77.4h0l38.18-38.18h0L214.8,320h0l-29.69,29.69A12,12,0,0,1,168.14,349.71Z"/><path class="cls-3" d="M302,66.13l24,24a16,16,0,0,1,0,22.63L226.87,212a4,4,0,0,1-5.65,0l-32.53-32.53a4,4,0,0,1,0-5.66L296.32,66.13A4,4,0,0,1,302,66.13Z"/><path class="cls-4" d="M141,221.48,173.52,189a4,4,0,0,1,5.65,0L280.84,290.62a4,4,0,0,1,0,5.66l-24,24a16,16,0,0,1-22.63,0L141,227.14A4,4,0,0,1,141,221.48Z"/><path class="cls-2" d="M56.66,281.13l-24-24a16,16,0,0,1,0-22.63l93.18-93.18a4,4,0,0,1,5.66,0L164,173.81a4,4,0,0,1,0,5.65L62.32,281.13A4,4,0,0,1,56.66,281.13Z"/><path class="cls-5" d="M416.6,193.42l8.9-11.6a46.42,46.42,0,0,0,10.94,6.87,27.45,27.45,0,0,0,10.66,2.13,18.38,18.38,0,0,0,8.58-1.67,5.12,5.12,0,0,0,3.1-4.64,4.82,4.82,0,0,0-2.08-4.17c-1.39-1-3.7-1.76-6.91-2.32l-14.28-2.5q-7.87-1.4-12.15-6a16.7,16.7,0,0,1-4.26-11.77q0-9.37,7.09-14.79t19.52-5.43a45.12,45.12,0,0,1,14.6,2.51A40.59,40.59,0,0,1,473,146.78l-8.44,11.77a38.89,38.89,0,0,0-10-5.84,27.79,27.79,0,0,0-10-1.86,16.14,16.14,0,0,0-7.65,1.54,4.58,4.58,0,0,0-2.83,4.12,4.38,4.38,0,0,0,1.81,3.76,13.73,13.73,0,0,0,5.89,2l13.44,2.23q9.36,1.47,14.23,6.21A16.32,16.32,0,0,1,474.32,183a18.46,18.46,0,0,1-7.65,15.57q-7.65,5.76-20.81,5.75a44.28,44.28,0,0,1-15.53-2.87A45.77,45.77,0,0,1,416.6,193.42Z"/><path class="cls-5" d="M478.91,152.52V138.43h58.41v14.09H516.09v50.82h-16V152.52Z"/><path class="cls-5" d="M606.77,170.88A32.54,32.54,0,0,1,604.08,184a33,33,0,0,1-7.32,10.67,34.06,34.06,0,0,1-11,7.09,37,37,0,0,1-27.26,0,34.06,34.06,0,0,1-11-7.09,33.15,33.15,0,0,1-.07-47.57,34.06,34.06,0,0,1,11-7.09,37,37,0,0,1,27.26,0,34.06,34.06,0,0,1,11,7.09A33.15,33.15,0,0,1,604,157.76,32.54,32.54,0,0,1,606.77,170.88Zm-16.41,0a20.24,20.24,0,0,0-1.39-7.46,18.12,18.12,0,0,0-33.75,0,20.78,20.78,0,0,0,0,14.93,18.13,18.13,0,0,0,33.75,0,20.12,20.12,0,0,0,1.39-7.47Z"/><path class="cls-5" d="M645.53,189.52a19.14,19.14,0,0,0,8.76-2,22.7,22.7,0,0,0,7.28-6l10.48,10.3a32.7,32.7,0,0,1-11.92,9.08A35.5,35.5,0,0,1,645,204.26a36.65,36.65,0,0,1-13.77-2.59,34.37,34.37,0,0,1-11.08-7,32.78,32.78,0,0,1-7.32-10.57,33.09,33.09,0,0,1,7.37-37,34.93,34.93,0,0,1,11.08-7A36.21,36.21,0,0,1,645,137.5a34.77,34.77,0,0,1,8,.93,41.75,41.75,0,0,1,7.61,2.55,33.42,33.42,0,0,1,6.67,4,29.82,29.82,0,0,1,5.29,5.24l-10.76,10.57a24,24,0,0,0-7.65-6.44,19.6,19.6,0,0,0-9.13-2.18,18.37,18.37,0,0,0-7.28,1.44,17.72,17.72,0,0,0-5.84,3.94,18.2,18.2,0,0,0-3.89,6,19.28,19.28,0,0,0-1.44,7.46,18.53,18.53,0,0,0,1.44,7.38,18,18,0,0,0,4,5.88,18.5,18.5,0,0,0,6,3.94A19.63,19.63,0,0,0,645.53,189.52Z"/><path class="cls-5" d="M679.74,203.34V138.43h16V166.8L722,138.43h19.29l-30,30.51,31.72,34.4h-21.2l-26-29.77v29.77Z"/><path class="cls-5" d="M743.63,152.52V138.43H802v14.09H780.81v50.82H764.86V152.52Z"/><path class="cls-5" d="M808.16,203.34V138.43h51.18v13.82H824.11v11.68h23.27v13.35H824.11v12.24h35.6v13.82Z"/><path class="cls-5" d="M884.28,203.34H866l24.57-33.48-23.46-31.43h19L900.05,158l14-19.57h18.26l-23.09,31.43,25,33.48h-19l-15.48-21.7Z"/><path class="cls-5" d="M937.14,152.52V138.43h58.41v14.09H974.32v50.82h-16V152.52Z"/><path class="cls-5" d="M1003.52,203.34V138.43h16v64.91Z"/><path class="cls-5" d="M1031.16,203.34V138.43h15.94v50.81h34.22v14.1Z"/></g></g></g></g></svg>