<svg class="ty-pict ty-logo-container__image" id="b3ce12e7-f386-47df-93cf-fc4c3636c8af" xmlns="http://www.w3.org/2000/svg" xmlns:xlink="http://www.w3.org/1999/xlink" viewBox="0 0 70 70" style=" width: 70px; "><defs><linearGradient id="bbf0b8b7-141f-4c42-b2be-9f5026f406cb" x1="-1.62" y1="56.14" x2="71.62" y2="13.86" gradientUnits="userSpaceOnUse"><stop offset="0" stop-color="#ee4876"></stop><stop offset="0.29" stop-color="#bf588f"></stop><stop offset="0.94" stop-color="#497fcf"></stop><stop offset="1" stop-color="#3f82d5"></stop></linearGradient></defs><rect width="70" height="70" rx="15.11" fill="url(#bbf0b8b7-141f-4c42-b2be-9f5026f406cb)"></rect><path d="M44,52.79H36.87L35.4,47.73,21.81,45.39s1,1.08.79,1.93c-.14.54-1.86,5.47-1.86,5.47H13.67L25.34,18.58s.36-1.18,1.2-1.18h5.21c.82,0,1.18,1.18,1.18,1.18ZM33.13,40.55,29,27.32,25.75,37.76s-.4,1.32.36,1.59C26.49,39.48,33.13,40.55,33.13,40.55Z" transform="translate(0 0)" fill="#fff"></path><path d="M56.64,52.79H50V26.64L42,29V23.87s0-1.49,1-1.82L55.89,17.4h.75Z" transform="translate(0 0)" fill="#fff"></path></svg>