<svg width="32" height="32" viewBox="0 0 32 32" fill="none" xmlns="http://www.w3.org/2000/svg">
<path d="M19.6267 11.7213L13.9067 17.4546L11.7067 15.2546C11.5871 15.1151 11.44 15.0017 11.2746 14.9217C11.1092 14.8416 10.929 14.7967 10.7454 14.7896C10.5618 14.7825 10.3787 14.8134 10.2076 14.8805C10.0365 14.9475 9.88107 15.0492 9.75113 15.1791C9.62119 15.309 9.51951 15.4644 9.45248 15.6355C9.38545 15.8066 9.35451 15.9897 9.3616 16.1734C9.36869 16.357 9.41366 16.5372 9.4937 16.7026C9.57373 16.868 9.68709 17.0151 9.82666 17.1346L12.96 20.2813C13.0846 20.4049 13.2323 20.5026 13.3948 20.569C13.5572 20.6353 13.7312 20.669 13.9067 20.668C14.2564 20.6665 14.5916 20.5276 14.84 20.2813L21.5067 13.6146C21.6316 13.4907 21.7308 13.3432 21.7985 13.1807C21.8662 13.0183 21.9011 12.844 21.9011 12.668C21.9011 12.492 21.8662 12.3177 21.7985 12.1552C21.7308 11.9927 21.6316 11.8453 21.5067 11.7213C21.2568 11.473 20.9189 11.3336 20.5667 11.3336C20.2144 11.3336 19.8765 11.473 19.6267 11.7213ZM16 2.66797C13.3629 2.66797 10.785 3.44996 8.59239 4.91504C6.39974 6.38013 4.69077 8.46251 3.6816 10.8989C2.67243 13.3352 2.40839 16.0161 2.92286 18.6025C3.43733 21.1889 4.70721 23.5647 6.57191 25.4294C8.43661 27.2941 10.8124 28.564 13.3988 29.0784C15.9852 29.5929 18.6661 29.3289 21.1024 28.3197C23.5388 27.3105 25.6212 25.6016 27.0863 23.4089C28.5513 21.2162 29.3333 18.6384 29.3333 16.0013C29.3333 14.2503 28.9885 12.5165 28.3184 10.8989C27.6483 9.28118 26.6662 7.81133 25.4281 6.57321C24.19 5.3351 22.7201 4.35297 21.1024 3.68291C19.4848 3.01285 17.751 2.66797 16 2.66797ZM16 26.668C13.8903 26.668 11.828 26.0424 10.0739 24.8703C8.31979 23.6982 6.95262 22.0323 6.14528 20.0833C5.33795 18.1342 5.12671 15.9895 5.53829 13.9203C5.94986 11.8512 6.96576 9.95059 8.45752 8.45883C9.94928 6.96707 11.8499 5.95117 13.919 5.53959C15.9882 5.12802 18.1329 5.33925 20.082 6.14659C22.031 6.95392 23.6969 8.3211 24.869 10.0752C26.0411 11.8293 26.6667 13.8916 26.6667 16.0013C26.6667 18.8303 25.5429 21.5434 23.5425 23.5438C21.5421 25.5442 18.829 26.668 16 26.668Z" fill="url(#paint0_linear)"/>
<defs>
<linearGradient id="paint0_linear" x1="2.66667" y1="29.3345" x2="30.479" y2="28.0142" gradientUnits="userSpaceOnUse">
<stop stop-color="#FAB984"/>
<stop offset="1" stop-color="#FF498A"/>
</linearGradient>
</defs>
</svg>
