<svg width="32" height="32" viewBox="0 0 32 32" fill="none" xmlns="http://www.w3.org/2000/svg">
<g clip-path="url(#clip0)">
<path d="M27.5238 16.2763C27.5238 15.4605 27.4577 14.6404 27.3166 13.8379H15.9978V18.4589H22.4795C22.2106 19.9492 21.3463 21.2676 20.0808 22.1054V25.1037H23.9478C26.2186 23.0137 27.5238 19.9272 27.5238 16.2763Z" fill="#4285F4"/>
<path d="M15.9978 27.9994C19.2342 27.9994 21.9636 26.9367 23.9522 25.1024L20.0852 22.1041C19.0094 22.836 17.6204 23.2505 16.0022 23.2505C12.8716 23.2505 10.2172 21.1384 9.26474 18.2988H5.27429V21.3898C7.3114 25.4419 11.4606 27.9994 15.9978 27.9994Z" fill="#34A853"/>
<path d="M9.26034 18.2987C8.75768 16.8084 8.75768 15.1946 9.26034 13.7042V10.6133H5.2743C3.5723 14.0041 3.5723 17.9989 5.2743 21.3897L9.26034 18.2987Z" fill="#FBBC04"/>
<path d="M15.9978 8.74966C17.7086 8.7232 19.3621 9.36697 20.6011 10.5487L24.0272 7.12262C21.8578 5.0855 18.9785 3.96553 15.9978 4.00081C11.4606 4.00081 7.3114 6.55822 5.27429 10.6148L9.26033 13.7058C10.2083 10.8617 12.8672 8.74966 15.9978 8.74966Z" fill="#EA4335"/>
</g>
<defs>
<clipPath id="clip0">
<rect width="23.5238" height="24" fill="white" transform="translate(4 4)"/>
</clipPath>
</defs>
</svg>
