<svg width="1920" height="3076" viewBox="0 0 1920 3076" fill="none" xmlns="http://www.w3.org/2000/svg">
<path d="M-576.918 1537.99L959.993 1.08154L2496.9 1537.99L959.993 3074.9L-576.918 1537.99Z" stroke="#444444" stroke-opacity="0.21" stroke-width="1.08" stroke-miterlimit="10.8"/>
<path d="M-538.496 1537.99L959.993 39.5043L2458.48 1537.99L959.993 3036.48L-538.496 1537.99Z" stroke="#444444" stroke-opacity="0.21" stroke-width="1.08" stroke-miterlimit="10.8"/>
<path d="M-500.073 1537.99L959.993 77.9271L2420.06 1537.99L959.993 2998.06L-500.073 1537.99Z" stroke="#444444" stroke-opacity="0.21" stroke-width="1.08" stroke-miterlimit="10.8"/>
<path d="M-461.65 1537.99L959.993 116.35L2381.64 1537.99L959.993 2959.64L-461.65 1537.99Z" stroke="#444444" stroke-opacity="0.21" stroke-width="1.08" stroke-miterlimit="10.8"/>
<path d="M-423.227 1537.99L959.993 154.773L2343.21 1537.99L959.993 2921.21L-423.227 1537.99Z" stroke="#444444" stroke-opacity="0.21" stroke-width="1.08" stroke-miterlimit="10.8"/>
<path d="M-384.804 1537.99L959.993 193.195L2304.79 1537.99L959.993 2882.79L-384.804 1537.99Z" stroke="#444444" stroke-opacity="0.21" stroke-width="1.08" stroke-miterlimit="10.8"/>
<path d="M-346.382 1537.99L959.993 231.618L2266.37 1537.99L959.993 2844.37L-346.382 1537.99Z" stroke="#444444" stroke-opacity="0.21" stroke-width="1.08" stroke-miterlimit="10.8"/>
<path d="M-307.959 1537.99L959.993 270.041L2227.94 1537.99L959.993 2805.94L-307.959 1537.99Z" stroke="#444444" stroke-opacity="0.21" stroke-width="1.08" stroke-miterlimit="10.8"/>
<path d="M-269.536 1537.99L959.993 308.464L2189.52 1537.99L959.993 2767.52L-269.536 1537.99Z" stroke="#444444" stroke-opacity="0.21" stroke-width="1.08" stroke-miterlimit="10.8"/>
<path d="M-231.113 1537.99L959.993 346.887L2151.1 1537.99L959.993 2729.1L-231.113 1537.99Z" stroke="#444444" stroke-opacity="0.21" stroke-width="1.08" stroke-miterlimit="10.8"/>
<path d="M-192.691 1537.99L959.993 385.309L2112.68 1537.99L959.993 2690.68L-192.691 1537.99Z" stroke="#444444" stroke-opacity="0.21" stroke-width="1.08" stroke-miterlimit="10.8"/>
<path d="M-154.268 1537.99L959.993 423.732L2074.25 1537.99L959.993 2652.25L-154.268 1537.99Z" stroke="#444444" stroke-opacity="0.21" stroke-width="1.08" stroke-miterlimit="10.8"/>
<path d="M-115.845 1537.99L959.993 462.155L2035.83 1537.99L959.993 2613.83L-115.845 1537.99Z" stroke="#444444" stroke-opacity="0.21" stroke-width="1.08" stroke-miterlimit="10.8"/>
<path d="M-77.4224 1537.99L959.993 500.578L1997.41 1537.99L959.993 2575.41L-77.4224 1537.99Z" stroke="#444444" stroke-opacity="0.21" stroke-width="1.08" stroke-miterlimit="10.8"/>
<path d="M-38.9995 1537.99L959.993 539L1958.99 1537.99L959.993 2536.99L-38.9995 1537.99Z" stroke="#444444" stroke-opacity="0.21" stroke-width="1.08" stroke-miterlimit="10.8"/>
<path d="M-0.57666 1537.99L959.993 577.423L1920.56 1537.99L959.993 2498.56L-0.57666 1537.99Z" stroke="#444444" stroke-opacity="0.21" stroke-width="1.08" stroke-miterlimit="10.8"/>
<path d="M37.8462 1537.99L959.993 615.846L1882.14 1537.99L959.993 2460.14L37.8462 1537.99Z" stroke="#444444" stroke-opacity="0.21" stroke-width="1.08" stroke-miterlimit="10.8"/>
<path d="M76.2688 1537.99L959.993 654.269L1843.72 1537.99L959.993 2421.72L76.2688 1537.99Z" stroke="#444444" stroke-opacity="0.21" stroke-width="1.08" stroke-miterlimit="10.8"/>
<path d="M114.692 1537.99L959.993 692.692L1805.29 1537.99L959.993 2383.29L114.692 1537.99Z" stroke="#444444" stroke-opacity="0.21" stroke-width="1.08" stroke-miterlimit="10.8"/>
<path d="M153.115 1537.99L959.993 731.115L1766.87 1537.99L959.993 2344.87L153.115 1537.99Z" stroke="#444444" stroke-opacity="0.21" stroke-width="1.08" stroke-miterlimit="10.8"/>
<path d="M191.537 1537.99L959.993 769.537L1728.45 1537.99L959.993 2306.45L191.537 1537.99Z" stroke="#444444" stroke-opacity="0.21" stroke-width="1.08" stroke-miterlimit="10.8"/>
<path d="M229.96 1537.99L959.993 807.96L1690.03 1537.99L959.993 2268.03L229.96 1537.99Z" stroke="#444444" stroke-opacity="0.21" stroke-width="1.08" stroke-miterlimit="10.8"/>
<path d="M268.383 1537.99L959.993 846.383L1651.6 1537.99L959.993 2229.6L268.383 1537.99Z" stroke="#444444" stroke-opacity="0.21" stroke-width="1.08" stroke-miterlimit="10.8"/>
<path d="M306.806 1537.99L959.993 884.806L1613.18 1537.99L959.993 2191.18L306.806 1537.99Z" stroke="#444444" stroke-opacity="0.21" stroke-width="1.08" stroke-miterlimit="10.8"/>
<path d="M345.228 1537.99L959.993 923.228L1574.76 1537.99L959.993 2152.76L345.228 1537.99Z" stroke="#444444" stroke-opacity="0.21" stroke-width="1.08" stroke-miterlimit="10.8"/>
<path d="M383.651 1537.99L959.993 961.651L1536.33 1537.99L959.993 2114.33L383.651 1537.99Z" stroke="#444444" stroke-opacity="0.21" stroke-width="1.08" stroke-miterlimit="10.8"/>
<path d="M422.074 1537.99L959.993 1000.07L1497.91 1537.99L959.993 2075.91L422.074 1537.99Z" stroke="#444444" stroke-opacity="0.21" stroke-width="1.08" stroke-miterlimit="10.8"/>
<path d="M460.497 1537.99L959.993 1038.5L1459.49 1537.99L959.993 2037.49L460.497 1537.99Z" stroke="#444444" stroke-opacity="0.21" stroke-width="1.08" stroke-miterlimit="10.8"/>
<path d="M498.919 1537.99L959.993 1076.92L1421.07 1537.99L959.993 1999.07L498.919 1537.99Z" stroke="#444444" stroke-opacity="0.21" stroke-width="1.08" stroke-miterlimit="10.8"/>
<path d="M537.342 1537.99L959.993 1115.34L1382.64 1537.99L959.993 1960.64L537.342 1537.99Z" stroke="#444444" stroke-opacity="0.21" stroke-width="1.08" stroke-miterlimit="10.8"/>
<path d="M575.765 1537.99L959.993 1153.77L1344.22 1537.99L959.993 1922.22L575.765 1537.99Z" stroke="#444444" stroke-opacity="0.21" stroke-width="1.08" stroke-miterlimit="10.8"/>
<path d="M614.188 1537.99L959.993 1192.19L1305.8 1537.99L959.993 1883.8L614.188 1537.99Z" stroke="#444444" stroke-opacity="0.21" stroke-width="1.08" stroke-miterlimit="10.8"/>
<path d="M652.611 1537.99L959.993 1230.61L1267.38 1537.99L959.993 1845.38L652.611 1537.99Z" stroke="#444444" stroke-opacity="0.21" stroke-width="1.08" stroke-miterlimit="10.8"/>
<path d="M691.033 1537.99L959.993 1269.03L1228.95 1537.99L959.993 1806.95L691.033 1537.99Z" stroke="#444444" stroke-opacity="0.21" stroke-width="1.08" stroke-miterlimit="10.8"/>
<path d="M729.456 1537.99L959.993 1307.46L1190.53 1537.99L959.993 1768.53L729.456 1537.99Z" stroke="#444444" stroke-opacity="0.21" stroke-width="1.08" stroke-miterlimit="10.8"/>
<path d="M767.879 1537.99L959.993 1345.88L1152.11 1537.99L959.993 1730.11L767.879 1537.99Z" stroke="#444444" stroke-opacity="0.21" stroke-width="1.08" stroke-miterlimit="10.8"/>
<path d="M806.302 1537.99L959.993 1384.3L1113.68 1537.99L959.993 1691.68L806.302 1537.99Z" stroke="#444444" stroke-opacity="0.21" stroke-width="1.08" stroke-miterlimit="10.8"/>
<path d="M844.724 1537.99L959.993 1422.72L1075.26 1537.99L959.993 1653.26L844.724 1537.99Z" stroke="#444444" stroke-opacity="0.21" stroke-width="1.08" stroke-miterlimit="10.8"/>
<path d="M883.147 1537.99L959.993 1461.15L1036.84 1537.99L959.993 1614.84L883.147 1537.99Z" stroke="#444444" stroke-opacity="0.21" stroke-width="1.08" stroke-miterlimit="10.8"/>
<path d="M921.57 1537.99L959.993 1499.57L998.416 1537.99L959.993 1576.42L921.57 1537.99Z" stroke="#444444" stroke-opacity="0.21" stroke-width="1.08" stroke-miterlimit="10.8"/>
<path d="M1728.45 769.537H191.537V2306.45H1728.45V769.537Z" fill="url(#paint0_radial)" fill-opacity="0.21"/>
<defs>
<radialGradient id="paint0_radial" cx="0" cy="0" r="1" gradientUnits="userSpaceOnUse" gradientTransform="translate(959.994 1538.01) scale(540.87)">
<stop stop-color="#2E282C"/>
<stop offset="1" stop-color="#2E282C" stop-opacity="0"/>
</radialGradient>
</defs>
</svg>
